<?xml version="1.0" encoding="utf-8"?>
<!-- Generator: Adobe Illustrator 23.0.3, SVG Export Plug-In . SVG Version: 6.00 Build 0)  -->
<svg version="1.1" id="Layer_1" xmlns="http://www.w3.org/2000/svg" xmlns:xlink="http://www.w3.org/1999/xlink" x="0px" y="0px"
	 viewBox="0 0 223.2 170.4" style="enable-background:new 0 0 223.2 170.4;" xml:space="preserve">
<style type="text/css">
	.st0{fill:none;stroke:#2A89CA;stroke-width:2;stroke-miterlimit:10;}
	.st1{fill:#ED1C24;stroke:#2A89CA;stroke-width:2;stroke-linecap:round;stroke-miterlimit:10;}
	.st2{fill:none;stroke:#2A89CA;stroke-width:2;stroke-linecap:round;stroke-miterlimit:10;}
	.st3{stroke:#000000;}
	.st4{fill:none;stroke:#000000;}
</style>
<g>
	<path class="st0" d="M125.8,36.6c-4.7,0.2-9,1.8-12.5,4.5c-5.2,4-8.6,10.3-8.6,17.3c0,1.8,0.2,3.6,0.6,5.2c-0.5,0-0.9,0.1-1.4,0.1
		c-3.1,0.3-6.1,0.9-8.9,1.9c-9.8-3.1-16.8-12.2-16.8-23c0-0.6,0-1.2,0.1-1.8c0.9-11.9,10.4-21.5,22.4-22.3c0.6,0,1.1-0.1,1.7-0.1
		C113.6,18.5,123.1,26.2,125.8,36.6z"/>
	<path class="st0" d="M148.3,58.4c0,11.2-8.5,20.5-19.4,21.7c1.1-1,2.1-2.1,3-3.3c0.6-0.8,0.6-1.8,0-2.6
		c-4.7-6.4-13.9-10.7-24.5-10.7c-0.7,0-1.3,0-2,0.1c-0.4-1.7-0.6-3.4-0.6-5.2c0-11.8,9.4-21.4,21.1-21.8c0.3,0,0.5,0,0.8,0
		C138.6,36.6,148.3,46.3,148.3,58.4z"/>
	<g>
		<path class="st0" d="M131.9,76.8c-0.9,1.2-1.8,2.2-3,3.3c-5.1,4.5-12.9,7.4-21.5,7.4c-10.6,0-19.9-4.3-24.5-10.7
			c-0.6-0.8-0.6-1.8,0-2.6c2.7-3.7,7-6.8,12.3-8.6c3.1-1.1,6.6-1.8,10.2-2c0.7,0,1.3-0.1,2-0.1c10.6,0,19.8,4.3,24.5,10.7
			C132.5,75,132.5,76,131.9,76.8z"/>
		<line class="st1" x1="93.8" y1="75.1" x2="118.3" y2="75.1"/>
		<line class="st2" x1="96.3" y1="72.6" x2="96.3" y2="77.5"/>
		<line class="st2" x1="101.2" y1="72.6" x2="101.2" y2="77.5"/>
		<line class="st2" x1="106.1" y1="72.6" x2="106.1" y2="77.5"/>
		<line class="st2" x1="110.9" y1="72.6" x2="110.9" y2="77.5"/>
		<line class="st2" x1="115.8" y1="72.6" x2="115.8" y2="77.5"/>
	</g>
	<line class="st0" x1="119.3" y1="25.8" x2="85.2" y2="59.9"/>
	<line class="st0" x1="85.4" y1="25.5" x2="107.6" y2="47.8"/>
	<path class="st0" d="M104,63.7c-3.1,0.3-6.1,0.9-8.9,1.9c-9.8-3.1-16.8-12.2-16.8-23c0-0.6,0-1.2,0.1-1.8c0.2,0,0.3,0,0.5,0
		C92.3,40.8,103.3,51,104,63.7z"/>
	<path class="st0" d="M125.8,36.6c-4.7,0.2-9,1.8-12.5,4.5c-7.5-4.4-12.6-12.4-12.6-21.7c0-0.3,0-0.6,0-0.8c0.6,0,1.1-0.1,1.7-0.1
		C113.6,18.5,123.1,26.2,125.8,36.6z"/>
	<line class="st0" x1="113.1" y1="53.2" x2="119.5" y2="55.9"/>
	<line class="st0" x1="126.5" y1="44.8" x2="126.5" y2="51.1"/>
	<line class="st0" x1="119.5" y1="55.9" x2="126.7" y2="51"/>
	<path class="st2" d="M133.6,56"/>
	<line class="st0" x1="133.7" y1="55.9" x2="126.7" y2="51"/>
	<line class="st0" x1="131.4" y1="64" x2="133.6" y2="56"/>
	<line class="st2" x1="134.9" y1="68" x2="131.1" y2="63.9"/>
	<line class="st0" x1="131.2" y1="64.1" x2="121.9" y2="64.3"/>
	<line class="st0" x1="119.5" y1="55.9" x2="121.6" y2="64.7"/>
	<line class="st0" x1="121.9" y1="64.3" x2="121.1" y2="65.8"/>
	<line class="st0" x1="113.1" y1="53.4" x2="110.9" y2="47.4"/>
	<line class="st0" x1="107.4" y1="59.1" x2="113.1" y2="53.4"/>
	<line class="st2" x1="107.5" y1="59" x2="105.2" y2="59"/>
	<line class="st2" x1="110.8" y1="47.3" x2="108.6" y2="46.6"/>
	<line class="st2" x1="126.5" y1="44.8" x2="119.5" y2="40.1"/>
	<line class="st2" x1="119.4" y1="37.8" x2="119.5" y2="40.1"/>
	<line class="st2" x1="126.5" y1="44.8" x2="133.6" y2="39.9"/>
	<line class="st2" x1="133.6" y1="37.8" x2="133.6" y2="39.9"/>
	<line class="st2" x1="133.6" y1="56" x2="138.6" y2="53.4"/>
	<line class="st2" x1="138.6" y1="53.4" x2="140.9" y2="45"/>
	<line class="st2" x1="143.7" y1="45" x2="140.9" y2="45"/>
	<line class="st2" x1="138.6" y1="53.4" x2="145.6" y2="58.1"/>
	<line class="st2" x1="145.6" y1="58.1" x2="148.3" y2="57.8"/>
	<line class="st2" x1="134.9" y1="67.8" x2="143.7" y2="67.8"/>
	<line class="st2" x1="131.9" y1="74.2" x2="134.9" y2="68"/>
	<line class="st2" x1="143.7" y1="67.8" x2="144.4" y2="70.8"/>
</g>
<g>
	<g>
		<path class="st3" d="M38,120.7c-0.3-0.5-0.1-1,0.4-1.3c2.8-1.3,4.6-3.9,4.6-7.1c0-4.6-3.5-8-8.5-8H23.2c-0.9,0-1.5,0.7-1.5,1.5
			v2.6c0,0.5,0.4,0.9,0.9,0.9l4,0l0,0h7.8c2.3,0,3.6,1.2,3.6,3c0,1.8-1.3,3-3.6,3h-7.8l0,0l-4,0c-0.5,0-0.9,0.4-0.9,0.9v11.9
			c0,0.8,0.7,1.5,1.5,1.5h1.9c0.9,0,1.5-0.7,1.5-1.5v-7c0-0.5,0.4-0.9,0.9-0.9h4.1c0.3,0,0.6,0.2,0.8,0.4l4.8,8.3
			c0.2,0.4,0.7,0.7,1.2,0.7h3c1.4,0,1.5-0.9,1-1.7L38,120.7z"/>
		<path class="st3" d="M72.1,110c0.9,0,1.5-0.7,1.5-1.5v-1.9c0-0.8-0.7-1.5-1.5-1.5H56.3c-0.9,0-1.5,0.7-1.5,1.5v22.3
			c0,0.8,0.6,1.5,1.5,1.5h15.8c0.9,0,1.5-0.7,1.5-1.5v-2c0-0.8-0.7-1.5-1.5-1.5H60.2c-0.3,0-0.6-0.3-0.6-0.6v-4.1
			c0-0.3,0.3-0.6,0.6-0.6h7.4c0.9,0,1.5-0.7,1.5-1.5v-1.9c0-0.8-0.6-1.5-1.5-1.5h-7.4c-0.3,0-0.6-0.3-0.6-0.6v-4.1
			c0-0.3,0.3-0.6,0.6-0.6H72.1z"/>
		<path class="st3" d="M104.8,109.5v-3c0-0.8-0.7-1.5-1.5-1.5H86.6c-0.9,0-1.5,0.7-1.5,1.5v1.9c0,0.8,0.6,1.5,1.5,1.5h10.3
			c0.5,0,0.8,0.6,0.4,0.9L85.4,125c-0.2,0.2-0.3,0.5-0.3,0.8v3c0,0.8,0.6,1.5,1.5,1.5h16.7c0.9,0,1.5-0.7,1.5-1.5v-2
			c0-0.8-0.7-1.5-1.5-1.5H92.8c-0.5,0-0.8-0.6-0.4-0.9l12.1-14.1C104.7,110.1,104.8,109.8,104.8,109.5z"/>
		<path class="st3" d="M132.7,121c-0.2-0.3,0-0.7,0.3-0.8c3-1.2,4.9-3.9,4.9-7.2c0-4.6-3.5-8-8.5-8h-11.2c-0.9,0-1.5,0.7-1.5,1.5
			v22.3c0,0.8,0.6,1.5,1.5,1.5h1.9c0.9,0,1.5-0.7,1.5-1.5v-7.3c0-0.3,0.3-0.6,0.6-0.6h4.6c0.2,0,0.4,0.1,0.5,0.3l4.9,8.4
			c0.2,0.4,0.6,0.7,1.1,0.7h3c1.4,0,1.5-0.9,1-1.7L132.7,121z M129.3,116h-7.2c-0.3,0-0.6-0.3-0.6-0.6v-4.9c0-0.3,0.3-0.6,0.6-0.6
			h7.2c2.3,0,3.6,1.2,3.6,3C132.9,114.8,131.6,116,129.3,116z"/>
		<path class="st3" d="M169.7,105H167c-0.5,0-1,0.4-1.3,0.9l-6,16c-0.2,0.5-0.9,0.5-1.1,0l-6-16c-0.2-0.5-0.7-0.9-1.3-0.9h-2.7
			c-1.3,0-1.3,0.9-0.7,2.3l8.2,22.1c0.2,0.5,0.7,0.9,1.3,0.9h3.4c0.6,0,1.1-0.4,1.3-0.9l8.2-22.1C170.9,105.9,171,105,169.7,105z"/>
		<path class="st3" d="M192.1,105h-9c-0.9,0-1.5,0.7-1.5,1.5v22.3c0,0.8,0.7,1.5,1.5,1.5h9c7.2-0.2,12.7-5.5,12.7-12.7
			C204.9,110.5,199.4,105.2,192.1,105z M191.9,125.4h-4.8c-0.3,0-0.6-0.3-0.6-0.6v-14.3c0-0.3,0.3-0.6,0.6-0.6h4.8
			c4.6,0,8,3.1,8,7.7C199.9,122.3,196.6,125.4,191.9,125.4z"/>
	</g>
	<path class="st4" d="M30.6,110.7"/>
</g>
</svg>
