<?xml version="1.0" encoding="utf-8"?>
<!-- Generator: Adobe Illustrator 23.0.3, SVG Export Plug-In . SVG Version: 6.00 Build 0)  -->
<svg version="1.1" id="Layer_1" xmlns="http://www.w3.org/2000/svg" xmlns:xlink="http://www.w3.org/1999/xlink" x="0px" y="0px"
	 viewBox="0 0 300.6 100.5" style="enable-background:new 0 0 300.6 100.5;" xml:space="preserve">
<style type="text/css">
	.st0{fill:none;stroke:#2A89CA;stroke-width:2;stroke-miterlimit:10;}
	.st1{fill:#ED1C24;stroke:#2A89CA;stroke-width:2;stroke-linecap:round;stroke-miterlimit:10;}
	.st2{fill:none;stroke:#2A89CA;stroke-width:2;stroke-linecap:round;stroke-miterlimit:10;}
	.st3{fill:#010101;stroke:#010101;}
	.st4{fill:none;stroke:#010101;}
</style>
<g>
	<path class="st0" d="M63,36.1c-4.7,0.2-9,1.8-12.5,4.5c-5.2,4-8.6,10.3-8.6,17.3c0,1.8,0.2,3.6,0.6,5.2c-0.5,0-0.9,0.1-1.4,0.1
		c-3.1,0.3-6.1,0.9-8.9,1.9c-9.8-3.1-16.8-12.2-16.8-23c0-0.6,0-1.2,0.1-1.8C16.4,28.4,26,18.9,38,18.1c0.6,0,1.1-0.1,1.7-0.1
		C50.9,18,60.3,25.7,63,36.1z"/>
	<path class="st0" d="M85.6,57.9c0,11.2-8.5,20.5-19.4,21.7c1.1-1,2.1-2.1,3-3.3c0.6-0.8,0.6-1.8,0-2.6
		c-4.7-6.4-13.9-10.7-24.5-10.7c-0.7,0-1.3,0-2,0.1c-0.4-1.7-0.6-3.4-0.6-5.2c0-11.8,9.4-21.4,21.1-21.8c0.3,0,0.5,0,0.8,0
		C75.8,36.1,85.6,45.9,85.6,57.9z"/>
	<g>
		<path class="st0" d="M69.1,76.3c-0.9,1.2-1.8,2.2-3,3.3C61.1,84.1,53.3,87,44.6,87C34,87,24.8,82.7,20.1,76.3
			c-0.6-0.8-0.6-1.8,0-2.6c2.7-3.7,7-6.8,12.3-8.6c3.1-1.1,6.6-1.8,10.2-2c0.7,0,1.3-0.1,2-0.1c10.6,0,19.8,4.3,24.5,10.7
			C69.7,74.6,69.7,75.6,69.1,76.3z"/>
		<line class="st1" x1="31.1" y1="74.6" x2="55.6" y2="74.6"/>
		<line class="st2" x1="33.5" y1="72.2" x2="33.5" y2="77.1"/>
		<line class="st2" x1="38.4" y1="72.2" x2="38.4" y2="77.1"/>
		<line class="st2" x1="43.3" y1="72.2" x2="43.3" y2="77.1"/>
		<line class="st2" x1="48.2" y1="72.2" x2="48.2" y2="77.1"/>
		<line class="st2" x1="53" y1="72.2" x2="53" y2="77.1"/>
	</g>
	<line class="st0" x1="56.6" y1="25.3" x2="22.4" y2="59.4"/>
	<line class="st0" x1="22.6" y1="25" x2="44.9" y2="47.3"/>
	<path class="st0" d="M41.2,63.3c-3.1,0.3-6.1,0.9-8.9,1.9c-9.8-3.1-16.8-12.2-16.8-23c0-0.6,0-1.2,0.1-1.8c0.2,0,0.3,0,0.5,0
		C29.5,40.4,40.6,50.5,41.2,63.3z"/>
	<path class="st0" d="M63,36.1c-4.7,0.2-9,1.8-12.5,4.5C43,36.2,37.9,28.2,37.9,18.9c0-0.3,0-0.6,0-0.8c0.6,0,1.1-0.1,1.7-0.1
		C50.9,18,60.3,25.7,63,36.1z"/>
	<line class="st0" x1="50.3" y1="52.8" x2="56.7" y2="55.4"/>
	<line class="st0" x1="63.8" y1="44.3" x2="63.8" y2="50.7"/>
	<line class="st0" x1="56.7" y1="55.4" x2="64" y2="50.5"/>
	<path class="st2" d="M70.8,55.5"/>
	<line class="st0" x1="71" y1="55.4" x2="63.9" y2="50.5"/>
	<line class="st0" x1="68.6" y1="63.5" x2="70.8" y2="55.5"/>
	<line class="st2" x1="72.1" y1="67.5" x2="68.3" y2="63.5"/>
	<line class="st0" x1="68.4" y1="63.6" x2="59.1" y2="63.8"/>
	<line class="st0" x1="56.7" y1="55.4" x2="58.9" y2="64.3"/>
	<line class="st0" x1="59.1" y1="63.8" x2="58.4" y2="65.3"/>
	<line class="st0" x1="50.3" y1="53" x2="48.1" y2="46.9"/>
	<line class="st0" x1="44.6" y1="58.7" x2="50.3" y2="53"/>
	<line class="st2" x1="44.7" y1="58.6" x2="42.4" y2="58.6"/>
	<line class="st2" x1="48.1" y1="46.8" x2="45.9" y2="46.2"/>
	<line class="st2" x1="63.8" y1="44.3" x2="56.7" y2="39.6"/>
	<line class="st2" x1="56.6" y1="37.3" x2="56.7" y2="39.6"/>
	<line class="st2" x1="63.8" y1="44.3" x2="70.9" y2="39.5"/>
	<line class="st2" x1="70.9" y1="37.3" x2="70.9" y2="39.5"/>
	<line class="st2" x1="70.8" y1="55.5" x2="75.9" y2="53"/>
	<line class="st2" x1="75.9" y1="53" x2="78.2" y2="44.5"/>
	<line class="st2" x1="81" y1="44.5" x2="78.2" y2="44.5"/>
	<line class="st2" x1="75.9" y1="53" x2="82.8" y2="57.7"/>
	<line class="st2" x1="82.8" y1="57.7" x2="85.6" y2="57.4"/>
	<line class="st2" x1="72.1" y1="67.4" x2="80.9" y2="67.4"/>
	<line class="st2" x1="69.1" y1="73.8" x2="72.1" y2="67.5"/>
	<line class="st2" x1="80.9" y1="67.4" x2="81.7" y2="70.3"/>
</g>
<g>
	<g>
		<path class="st3" d="M116.7,55.7c-0.3-0.5-0.1-1,0.4-1.3c2.8-1.3,4.6-3.9,4.6-7.1c0-4.6-3.5-8-8.5-8h-11.3c-0.9,0-1.5,0.7-1.5,1.5
			v2.6c0,0.5,0.4,0.9,0.9,0.9h4l0,0h7.8c2.3,0,3.6,1.2,3.6,3s-1.3,3-3.6,3h-7.8l0,0h-4c-0.5,0-0.9,0.4-0.9,0.9v11.9
			c0,0.8,0.7,1.5,1.5,1.5h1.9c0.9,0,1.5-0.7,1.5-1.5v-7c0-0.5,0.4-0.9,0.9-0.9h4.1c0.3,0,0.6,0.2,0.8,0.4l4.8,8.3
			c0.2,0.4,0.7,0.7,1.2,0.7h3c1.4,0,1.5-0.9,1-1.7L116.7,55.7z"/>
		<path class="st3" d="M150.8,45c0.9,0,1.5-0.7,1.5-1.5v-1.9c0-0.8-0.7-1.5-1.5-1.5h-15.8c-0.9,0-1.5,0.7-1.5,1.5v22.3
			c0,0.8,0.6,1.5,1.5,1.5h15.8c0.9,0,1.5-0.7,1.5-1.5v-2c0-0.8-0.7-1.5-1.5-1.5h-11.9c-0.3,0-0.6-0.3-0.6-0.6v-4.1
			c0-0.3,0.3-0.6,0.6-0.6h7.4c0.9,0,1.5-0.7,1.5-1.5v-1.9c0-0.8-0.6-1.5-1.5-1.5h-7.4c-0.3,0-0.6-0.3-0.6-0.6v-4.1
			c0-0.3,0.3-0.6,0.6-0.6L150.8,45L150.8,45z"/>
		<path class="st3" d="M183.4,44.5v-3c0-0.8-0.7-1.5-1.5-1.5h-16.7c-0.9,0-1.5,0.7-1.5,1.5v1.9c0,0.8,0.6,1.5,1.5,1.5h10.3
			c0.5,0,0.8,0.6,0.4,0.9L164.1,60c-0.2,0.2-0.3,0.5-0.3,0.8v3c0,0.8,0.6,1.5,1.5,1.5h16.7c0.9,0,1.5-0.7,1.5-1.5v-2
			c0-0.8-0.7-1.5-1.5-1.5h-10.5c-0.5,0-0.8-0.6-0.4-0.9l12.1-14.1C183.3,45.1,183.4,44.8,183.4,44.5z"/>
		<path class="st3" d="M211.3,56c-0.2-0.3,0-0.7,0.3-0.8c3-1.2,4.9-3.9,4.9-7.2c0-4.6-3.5-8-8.5-8h-11.2c-0.9,0-1.5,0.7-1.5,1.5
			v22.3c0,0.8,0.6,1.5,1.5,1.5h1.9c0.9,0,1.5-0.7,1.5-1.5v-7.3c0-0.3,0.3-0.6,0.6-0.6h4.6c0.2,0,0.4,0.1,0.5,0.3l4.9,8.4
			c0.2,0.4,0.6,0.7,1.1,0.7h3c1.4,0,1.5-0.9,1-1.7L211.3,56z M207.9,51h-7.2c-0.3,0-0.6-0.3-0.6-0.6v-4.9c0-0.3,0.3-0.6,0.6-0.6h7.2
			c2.3,0,3.6,1.2,3.6,3C211.5,49.8,210.3,51,207.9,51z"/>
		<path class="st3" d="M248.3,40h-2.7c-0.5,0-1,0.4-1.3,0.9l-6,16c-0.2,0.5-0.9,0.5-1.1,0l-6-16c-0.2-0.5-0.7-0.9-1.3-0.9h-2.7
			c-1.3,0-1.3,0.9-0.7,2.3l8.2,22.1c0.2,0.5,0.7,0.9,1.3,0.9h3.4c0.6,0,1.1-0.4,1.3-0.9l8.2-22.1C249.5,40.9,249.6,40,248.3,40z"/>
		<path class="st3" d="M270.8,40h-9c-0.9,0-1.5,0.7-1.5,1.5v22.3c0,0.8,0.7,1.5,1.5,1.5h9c7.2-0.2,12.7-5.5,12.7-12.7
			C283.5,45.5,278,40.2,270.8,40z M270.5,60.4h-4.8c-0.3,0-0.6-0.3-0.6-0.6V45.5c0-0.3,0.3-0.6,0.6-0.6h4.8c4.6,0,8,3.1,8,7.7
			C278.5,57.3,275.3,60.4,270.5,60.4z"/>
	</g>
	<path class="st4" d="M109.3,45.7"/>
</g>
</svg>
